  0
SECTION
  2
HEADER
  9
$ACADVER
  1
AC1009
  9
$FILLMODE
 70
1
  9
$EXTMIN
 10
-1.3700
 20
-1.3700
 30
0.0000
  9
$EXTMAX
 10
40.7162
 20
50.8762
 30
0.0000
  0
ENDSEC
  0
SECTION
  2
TABLES
  0
TABLE
  2
LTYPE
 70
1
  0
LTYPE
  2
CONTINUOUS
 70
64
  3
Solid line
 72
65
 73
0
 40
0
  0
ENDTAB
  0
TABLE
  2
LAYER
 70
255
  0
LAYER
  2
31
 70
64
 62
253
  6
CONTINUOUS
  0
LAYER
  2
32
 70
64
 62
253
  6
CONTINUOUS
  0
ENDTAB
  0
ENDSEC
  0
SECTION
  2
BLOCKS
  0
BLOCK
  8
0
  2
RECT
 70
64
 10
0.0000
 20
0.0000
 30
0.0000
  3
RECT
  0
SOLID
  8
0
 10
-0.5000
 20
-0.5000
 30
0.0000
 11
0.5000
 21
-0.5000
 31
0.0000
 12
-0.5000
 22
0.5000
 32
0.0000
 13
0.5000
 23
0.5000
 33
0.0000
  0
ENDBLK
  8
0
  0
BLOCK
  8
0
  2
PIE
 70
64
 10
0.0000
 20
0.0000
 30
0.0000
  3
PIE
  0
POLYLINE
  8
0
 66
1
 10
0.0000
 20
0.0000
 30
0.0000
 40
0.5000
 41
0.5000
 70
0
  0
VERTEX
  8
0
 10
0.0000
 20
-0.2500
 30
0.0000
 42
1.0000
  0
VERTEX
  8
0
 10
0.0000
 20
0.2500
 30
0.0000
 42
1.0000
  0
VERTEX
  8
0
 10
0.0000
 20
-0.2500
 30
0.0000
  0
SEQEND
  8
0
  0
ENDBLK
  8
0
  0
BLOCK
  8
0
  2
OCTAGONP
 70
64
 10
0.0000
 20
0.0000
 30
0.0000
  3
OCTAGONP
  0
POLYLINE
  8
0
 66
1
 10
0.0000
 20
0.0000
 30
0.0000
 40
0.5000
 41
0.5000
 70
0
  0
VERTEX
  8
0
 10
-0.2500
 20
-0.1036
 30
0.0000
  0
VERTEX
  8
0
 10
-0.2500
 20
0.1036
 30
0.0000
  0
VERTEX
  8
0
 10
-0.1036
 20
0.2500
 30
0.0000
  0
VERTEX
  8
0
 10
0.1036
 20
0.2500
 30
0.0000
  0
VERTEX
  8
0
 10
0.2500
 20
0.1036
 30
0.0000
  0
VERTEX
  8
0
 10
0.2500
 20
-0.1036
 30
0.0000
  0
VERTEX
  8
0
 10
0.1036
 20
-0.2500
 30
0.0000
  0
VERTEX
  8
0
 10
-0.1036
 20
-0.2500
 30
0.0000
  0
VERTEX
  8
0
 10
-0.2500
 20
-0.1036
 30
0.0000
  0
VERTEX
  8
0
 10
-0.2500
 20
0.1036
 30
0.0000
  0
SEQEND
  8
0
  0
ENDBLK
  8
0
  0
BLOCK
  8
0
  2
SQUAREP
 70
64
 10
0.0000
 20
0.0000
 30
0.0000
  3
SQUAREP
  0
SOLID
  8
0
 10
-0.5000
 20
-0.5000
 30
0.0000
 11
0.5000
 21
-0.5000
 31
0.0000
 12
-0.5000
 22
0.5000
 32
0.0000
 13
0.5000
 23
0.5000
 33
0.0000
  0
ENDBLK
  8
0
  0
BLOCK
  8
0
  2
ROUNDP
 70
64
 10
0.0000
 20
0.0000
 30
0.0000
  3
ROUNDP
  0
POLYLINE
  8
0
 66
1
 10
0.0000
 20
0.0000
 30
0.0000
 40
0.5000
 41
0.5000
 70
0
  0
VERTEX
  8
0
 10
0.0000
 20
-0.2500
 30
0.0000
 42
1.0000
  0
VERTEX
  8
0
 10
0.0000
 20
0.2500
 30
0.0000
 42
1.0000
  0
VERTEX
  8
0
 10
0.0000
 20
-0.2500
 30
0.0000
  0
SEQEND
  8
0
  0
ENDBLK
  8
0
  0
BLOCK
  8
0
  2
ANNULUSP
 70
64
 10
0.0000
 20
0.0000
 30
0.0000
  3
ANNULUSP
  0
POLYLINE
  8
0
 66
1
 10
0.0000
 20
0.0000
 30
0.0000
 40
0.5000
 41
0.5000
 70
0
  0
VERTEX
  8
0
 10
0.0000
 20
-0.2500
 30
0.0000
 42
1.0000
  0
VERTEX
  8
0
 10
0.0000
 20
0.2500
 30
0.0000
 42
1.0000
  0
VERTEX
  8
0
 10
0.0000
 20
-0.2500
 30
0.0000
  0
SEQEND
  8
0
  0
ENDBLK
  8
0
  0
BLOCK
  8
0
  2
THERMALP
 70
64
 10
0.0000
 20
0.0000
 30
0.0000
  3
THERMALP
  0
POLYLINE
  8
0
 66
1
 10
0.0000
 20
0.0000
 30
0.0000
 40
0.1000
 41
0.1000
 70
0
  0
VERTEX
  8
0
 10
-0.2379
 20
0.4500
 30
0.0000
  0
VERTEX
  8
0
 10
0.2379
 20
0.4500
 30
0.0000
  0
SEQEND
  8
0
  0
POLYLINE
  8
0
 66
1
 10
0.0000
 20
0.0000
 30
0.0000
 40
0.0500
 41
0.0500
 70
0
  0
VERTEX
  8
0
 10
0.2379
 20
0.4250
 30
0.0000
 42
1.0000
  0
VERTEX
  8
0
 10
0.2379
 20
0.4750
 30
0.0000
  0
SEQEND
  8
0
  0
POLYLINE
  8
0
 66
1
 10
0.0000
 20
0.0000
 30
0.0000
 40
0.0500
 41
0.0500
 70
0
  0
VERTEX
  8
0
 10
-0.2379
 20
0.4750
 30
0.0000
 42
1.0000
  0
VERTEX
  8
0
 10
-0.2379
 20
0.4250
 30
0.0000
  0
SEQEND
  8
0
  0
POLYLINE
  8
0
 66
1
 10
0.0000
 20
0.0000
 30
0.0000
 40
0.1000
 41
0.1000
 70
0
  0
VERTEX
  8
0
 10
0.4500
 20
0.2379
 30
0.0000
  0
VERTEX
  8
0
 10
0.4500
 20
-0.2379
 30
0.0000
  0
SEQEND
  8
0
  0
POLYLINE
  8
0
 66
1
 10
0.0000
 20
0.0000
 30
0.0000
 40
0.0500
 41
0.0500
 70
0
  0
VERTEX
  8
0
 10
0.4250
 20
-0.2379
 30
0.0000
 42
1.0000
  0
VERTEX
  8
0
 10
0.4750
 20
-0.2379
 30
0.0000
  0
SEQEND
  8
0
  0
POLYLINE
  8
0
 66
1
 10
0.0000
 20
0.0000
 30
0.0000
 40
0.0500
 41
0.0500
 70
0
  0
VERTEX
  8
0
 10
0.4750
 20
0.2379
 30
0.0000
 42
1.0000
  0
VERTEX
  8
0
 10
0.4250
 20
0.2379
 30
0.0000
  0
SEQEND
  8
0
  0
POLYLINE
  8
0
 66
1
 10
0.0000
 20
0.0000
 30
0.0000
 40
0.1000
 41
0.1000
 70
0
  0
VERTEX
  8
0
 10
0.2379
 20
-0.4500
 30
0.0000
  0
VERTEX
  8
0
 10
-0.2379
 20
-0.4500
 30
0.0000
  0
SEQEND
  8
0
  0
POLYLINE
  8
0
 66
1
 10
0.0000
 20
0.0000
 30
0.0000
 40
0.0500
 41
0.0500
 70
0
  0
VERTEX
  8
0
 10
-0.2379
 20
-0.4250
 30
0.0000
 42
1.0000
  0
VERTEX
  8
0
 10
-0.2379
 20
-0.4750
 30
0.0000
  0
SEQEND
  8
0
  0
POLYLINE
  8
0
 66
1
 10
0.0000
 20
0.0000
 30
0.0000
 40
0.0500
 41
0.0500
 70
0
  0
VERTEX
  8
0
 10
0.2379
 20
-0.4750
 30
0.0000
 42
1.0000
  0
VERTEX
  8
0
 10
0.2379
 20
-0.4250
 30
0.0000
  0
SEQEND
  8
0
  0
POLYLINE
  8
0
 66
1
 10
0.0000
 20
0.0000
 30
0.0000
 40
0.1000
 41
0.1000
 70
0
  0
VERTEX
  8
0
 10
-0.4500
 20
-0.2379
 30
0.0000
  0
VERTEX
  8
0
 10
-0.4500
 20
0.2379
 30
0.0000
  0
SEQEND
  8
0
  0
POLYLINE
  8
0
 66
1
 10
0.0000
 20
0.0000
 30
0.0000
 40
0.0500
 41
0.0500
 70
0
  0
VERTEX
  8
0
 10
-0.4250
 20
0.2379
 30
0.0000
 42
1.0000
  0
VERTEX
  8
0
 10
-0.4750
 20
0.2379
 30
0.0000
  0
SEQEND
  8
0
  0
POLYLINE
  8
0
 66
1
 10
0.0000
 20
0.0000
 30
0.0000
 40
0.0500
 41
0.0500
 70
0
  0
VERTEX
  8
0
 10
-0.4750
 20
-0.2379
 30
0.0000
 42
1.0000
  0
VERTEX
  8
0
 10
-0.4250
 20
-0.2379
 30
0.0000
  0
SEQEND
  8
0
  0
ENDBLK
  8
0
  0
BLOCK
  8
0
  2
OCTAGONV
 70
64
 10
0.0000
 20
0.0000
 30
0.0000
  3
OCTAGONV
  0
POLYLINE
  8
0
 66
1
 10
0.0000
 20
0.0000
 30
0.0000
 40
0.5000
 41
0.5000
 70
0
  0
VERTEX
  8
0
 10
-0.2500
 20
-0.1036
 30
0.0000
  0
VERTEX
  8
0
 10
-0.2500
 20
0.1036
 30
0.0000
  0
VERTEX
  8
0
 10
-0.1036
 20
0.2500
 30
0.0000
  0
VERTEX
  8
0
 10
0.1036
 20
0.2500
 30
0.0000
  0
VERTEX
  8
0
 10
0.2500
 20
0.1036
 30
0.0000
  0
VERTEX
  8
0
 10
0.2500
 20
-0.1036
 30
0.0000
  0
VERTEX
  8
0
 10
0.1036
 20
-0.2500
 30
0.0000
  0
VERTEX
  8
0
 10
-0.1036
 20
-0.2500
 30
0.0000
  0
VERTEX
  8
0
 10
-0.2500
 20
-0.1036
 30
0.0000
  0
VERTEX
  8
0
 10
-0.2500
 20
0.1036
 30
0.0000
  0
SEQEND
  8
0
  0
ENDBLK
  8
0
  0
BLOCK
  8
0
  2
SQUAREV
 70
64
 10
0.0000
 20
0.0000
 30
0.0000
  3
SQUAREV
  0
SOLID
  8
0
 10
-0.5000
 20
-0.5000
 30
0.0000
 11
0.5000
 21
-0.5000
 31
0.0000
 12
-0.5000
 22
0.5000
 32
0.0000
 13
0.5000
 23
0.5000
 33
0.0000
  0
ENDBLK
  8
0
  0
BLOCK
  8
0
  2
ROUNDV
 70
64
 10
0.0000
 20
0.0000
 30
0.0000
  3
ROUNDV
  0
POLYLINE
  8
0
 66
1
 10
0.0000
 20
0.0000
 30
0.0000
 40
0.5000
 41
0.5000
 70
0
  0
VERTEX
  8
0
 10
0.0000
 20
-0.2500
 30
0.0000
 42
1.0000
  0
VERTEX
  8
0
 10
0.0000
 20
0.2500
 30
0.0000
 42
1.0000
  0
VERTEX
  8
0
 10
0.0000
 20
-0.2500
 30
0.0000
  0
SEQEND
  8
0
  0
ENDBLK
  8
0
  0
BLOCK
  8
0
  2
ANNULUSV
 70
64
 10
0.0000
 20
0.0000
 30
0.0000
  3
ANNULUSV
  0
POLYLINE
  8
0
 66
1
 10
0.0000
 20
0.0000
 30
0.0000
 40
0.5000
 41
0.5000
 70
0
  0
VERTEX
  8
0
 10
0.0000
 20
-0.2500
 30
0.0000
 42
1.0000
  0
VERTEX
  8
0
 10
0.0000
 20
0.2500
 30
0.0000
 42
1.0000
  0
VERTEX
  8
0
 10
0.0000
 20
-0.2500
 30
0.0000
  0
SEQEND
  8
0
  0
ENDBLK
  8
0
  0
BLOCK
  8
0
  2
THERMALV
 70
64
 10
0.0000
 20
0.0000
 30
0.0000
  3
THERMALV
  0
POLYLINE
  8
0
 66
1
 10
0.0000
 20
0.0000
 30
0.0000
 40
0.1000
 41
0.1000
 70
0
  0
VERTEX
  8
0
 10
-0.2379
 20
0.4500
 30
0.0000
  0
VERTEX
  8
0
 10
0.2379
 20
0.4500
 30
0.0000
  0
SEQEND
  8
0
  0
POLYLINE
  8
0
 66
1
 10
0.0000
 20
0.0000
 30
0.0000
 40
0.0500
 41
0.0500
 70
0
  0
VERTEX
  8
0
 10
0.2379
 20
0.4250
 30
0.0000
 42
1.0000
  0
VERTEX
  8
0
 10
0.2379
 20
0.4750
 30
0.0000
  0
SEQEND
  8
0
  0
POLYLINE
  8
0
 66
1
 10
0.0000
 20
0.0000
 30
0.0000
 40
0.0500
 41
0.0500
 70
0
  0
VERTEX
  8
0
 10
-0.2379
 20
0.4750
 30
0.0000
 42
1.0000
  0
VERTEX
  8
0
 10
-0.2379
 20
0.4250
 30
0.0000
  0
SEQEND
  8
0
  0
POLYLINE
  8
0
 66
1
 10
0.0000
 20
0.0000
 30
0.0000
 40
0.1000
 41
0.1000
 70
0
  0
VERTEX
  8
0
 10
0.4500
 20
0.2379
 30
0.0000
  0
VERTEX
  8
0
 10
0.4500
 20
-0.2379
 30
0.0000
  0
SEQEND
  8
0
  0
POLYLINE
  8
0
 66
1
 10
0.0000
 20
0.0000
 30
0.0000
 40
0.0500
 41
0.0500
 70
0
  0
VERTEX
  8
0
 10
0.4250
 20
-0.2379
 30
0.0000
 42
1.0000
  0
VERTEX
  8
0
 10
0.4750
 20
-0.2379
 30
0.0000
  0
SEQEND
  8
0
  0
POLYLINE
  8
0
 66
1
 10
0.0000
 20
0.0000
 30
0.0000
 40
0.0500
 41
0.0500
 70
0
  0
VERTEX
  8
0
 10
0.4750
 20
0.2379
 30
0.0000
 42
1.0000
  0
VERTEX
  8
0
 10
0.4250
 20
0.2379
 30
0.0000
  0
SEQEND
  8
0
  0
POLYLINE
  8
0
 66
1
 10
0.0000
 20
0.0000
 30
0.0000
 40
0.1000
 41
0.1000
 70
0
  0
VERTEX
  8
0
 10
0.2379
 20
-0.4500
 30
0.0000
  0
VERTEX
  8
0
 10
-0.2379
 20
-0.4500
 30
0.0000
  0
SEQEND
  8
0
  0
POLYLINE
  8
0
 66
1
 10
0.0000
 20
0.0000
 30
0.0000
 40
0.0500
 41
0.0500
 70
0
  0
VERTEX
  8
0
 10
-0.2379
 20
-0.4250
 30
0.0000
 42
1.0000
  0
VERTEX
  8
0
 10
-0.2379
 20
-0.4750
 30
0.0000
  0
SEQEND
  8
0
  0
POLYLINE
  8
0
 66
1
 10
0.0000
 20
0.0000
 30
0.0000
 40
0.0500
 41
0.0500
 70
0
  0
VERTEX
  8
0
 10
0.2379
 20
-0.4750
 30
0.0000
 42
1.0000
  0
VERTEX
  8
0
 10
0.2379
 20
-0.4250
 30
0.0000
  0
SEQEND
  8
0
  0
POLYLINE
  8
0
 66
1
 10
0.0000
 20
0.0000
 30
0.0000
 40
0.1000
 41
0.1000
 70
0
  0
VERTEX
  8
0
 10
-0.4500
 20
-0.2379
 30
0.0000
  0
VERTEX
  8
0
 10
-0.4500
 20
0.2379
 30
0.0000
  0
SEQEND
  8
0
  0
POLYLINE
  8
0
 66
1
 10
0.0000
 20
0.0000
 30
0.0000
 40
0.0500
 41
0.0500
 70
0
  0
VERTEX
  8
0
 10
-0.4250
 20
0.2379
 30
0.0000
 42
1.0000
  0
VERTEX
  8
0
 10
-0.4750
 20
0.2379
 30
0.0000
  0
SEQEND
  8
0
  0
POLYLINE
  8
0
 66
1
 10
0.0000
 20
0.0000
 30
0.0000
 40
0.0500
 41
0.0500
 70
0
  0
VERTEX
  8
0
 10
-0.4750
 20
-0.2379
 30
0.0000
 42
1.0000
  0
VERTEX
  8
0
 10
-0.4250
 20
-0.2379
 30
0.0000
  0
SEQEND
  8
0
  0
ENDBLK
  8
0
  0
ENDSEC
  0
SECTION
  2
ENTITIES
  0
INSERT
  8
31
  2
RECT
 10
11.4300
 20
15.5600
 30
0.0000
 41
1.3000
 42
1.5000
 43
1.0000
 50
90.0000
  0
INSERT
  8
31
  2
RECT
 10
11.4300
 20
17.4600
 30
0.0000
 41
1.3000
 42
1.5000
 43
1.0000
 50
90.0000
  0
INSERT
  8
31
  2
RECT
 10
31.7500
 20
28.2600
 30
0.0000
 41
1.3000
 42
1.5000
 43
1.0000
 50
90.0000
  0
INSERT
  8
31
  2
RECT
 10
31.7500
 20
30.1600
 30
0.0000
 41
1.3000
 42
1.5000
 43
1.0000
 50
90.0000
  0
INSERT
  8
31
  2
RECT
 10
23.0480
 20
10.4140
 30
0.0000
 41
1.3000
 42
1.5000
 43
1.0000
 50
180.0000
  0
INSERT
  8
31
  2
RECT
 10
21.1480
 20
10.4140
 30
0.0000
 41
1.3000
 42
1.5000
 43
1.0000
 50
180.0000
  0
INSERT
  8
31
  2
RECT
 10
13.0150
 20
12.0650
 30
0.0000
 41
1.3000
 42
1.5000
 43
1.0000
 50
180.0000
  0
INSERT
  8
31
  2
RECT
 10
11.1150
 20
12.0650
 30
0.0000
 41
1.3000
 42
1.5000
 43
1.0000
 50
180.0000
  0
INSERT
  8
31
  2
RECT
 10
24.8920
 20
17.9680
 30
0.0000
 41
1.3000
 42
1.5000
 43
1.0000
 50
270.0000
  0
INSERT
  8
31
  2
RECT
 10
24.8920
 20
16.0680
 30
0.0000
 41
1.3000
 42
1.5000
 43
1.0000
 50
270.0000
  0
INSERT
  8
31
  2
RECT
 10
27.3710
 20
19.9390
 30
0.0000
 41
1.3000
 42
1.5000
 43
1.0000
 50
0.0000
  0
INSERT
  8
31
  2
RECT
 10
29.2710
 20
19.9390
 30
0.0000
 41
1.3000
 42
1.5000
 43
1.0000
 50
0.0000
  0
INSERT
  8
31
  2
RECT
 10
22.8600
 20
13.0200
 30
0.0000
 41
1.3000
 42
1.5000
 43
1.0000
 50
90.0000
  0
INSERT
  8
31
  2
RECT
 10
22.8600
 20
14.9200
 30
0.0000
 41
1.3000
 42
1.5000
 43
1.0000
 50
90.0000
  0
INSERT
  8
31
  2
RECT
 10
17.4600
 20
12.7000
 30
0.0000
 41
1.3000
 42
1.5000
 43
1.0000
 50
180.0000
  0
INSERT
  8
31
  2
RECT
 10
15.5600
 20
12.7000
 30
0.0000
 41
1.3000
 42
1.5000
 43
1.0000
 50
180.0000
  0
INSERT
  8
31
  2
RECT
 10
15.7734
 20
23.4950
 30
0.0000
 41
0.6604
 42
2.0320
 43
1.0000
 50
90.0000
  0
INSERT
  8
31
  2
RECT
 10
15.7734
 20
24.7650
 30
0.0000
 41
0.6604
 42
2.0320
 43
1.0000
 50
90.0000
  0
INSERT
  8
31
  2
RECT
 10
15.7734
 20
26.0350
 30
0.0000
 41
0.6604
 42
2.0320
 43
1.0000
 50
90.0000
  0
INSERT
  8
31
  2
RECT
 10
15.7734
 20
27.3050
 30
0.0000
 41
0.6604
 42
2.0320
 43
1.0000
 50
90.0000
  0
INSERT
  8
31
  2
RECT
 10
15.7734
 20
28.5750
 30
0.0000
 41
0.6604
 42
2.0320
 43
1.0000
 50
90.0000
  0
INSERT
  8
31
  2
RECT
 10
15.7734
 20
29.8450
 30
0.0000
 41
0.6604
 42
2.0320
 43
1.0000
 50
90.0000
  0
INSERT
  8
31
  2
RECT
 10
15.7734
 20
31.1150
 30
0.0000
 41
0.6604
 42
2.0320
 43
1.0000
 50
90.0000
  0
INSERT
  8
31
  2
RECT
 10
15.7734
 20
32.3850
 30
0.0000
 41
0.6604
 42
2.0320
 43
1.0000
 50
90.0000
  0
INSERT
  8
31
  2
RECT
 10
9.6266
 20
32.3850
 30
0.0000
 41
0.6604
 42
2.0320
 43
1.0000
 50
90.0000
  0
INSERT
  8
31
  2
RECT
 10
9.6266
 20
31.1150
 30
0.0000
 41
0.6604
 42
2.0320
 43
1.0000
 50
90.0000
  0
INSERT
  8
31
  2
RECT
 10
9.6266
 20
29.8450
 30
0.0000
 41
0.6604
 42
2.0320
 43
1.0000
 50
90.0000
  0
INSERT
  8
31
  2
RECT
 10
9.6266
 20
28.5750
 30
0.0000
 41
0.6604
 42
2.0320
 43
1.0000
 50
90.0000
  0
INSERT
  8
31
  2
RECT
 10
9.6266
 20
27.3050
 30
0.0000
 41
0.6604
 42
2.0320
 43
1.0000
 50
90.0000
  0
INSERT
  8
31
  2
RECT
 10
9.6266
 20
26.0350
 30
0.0000
 41
0.6604
 42
2.0320
 43
1.0000
 50
90.0000
  0
INSERT
  8
31
  2
RECT
 10
9.6266
 20
24.7650
 30
0.0000
 41
0.6604
 42
2.0320
 43
1.0000
 50
90.0000
  0
INSERT
  8
31
  2
RECT
 10
9.6266
 20
23.4950
 30
0.0000
 41
0.6604
 42
2.0320
 43
1.0000
 50
90.0000
  0
INSERT
  8
31
  2
RECT
 10
23.9690
 20
4.6990
 30
0.0000
 41
1.2000
 42
1.2000
 43
1.0000
 50
270.0000
  0
INSERT
  8
31
  2
RECT
 10
26.0690
 20
4.6990
 30
0.0000
 41
1.2000
 42
1.2000
 43
1.0000
 50
270.0000
  0
INSERT
  8
31
  2
RECT
 10
13.9700
 20
14.1900
 30
0.0000
 41
1.2000
 42
1.2000
 43
1.0000
 50
0.0000
  0
INSERT
  8
31
  2
RECT
 10
13.9700
 20
16.2900
 30
0.0000
 41
1.2000
 42
1.2000
 43
1.0000
 50
0.0000
  0
INSERT
  8
31
  2
RECT
 10
18.7300
 20
20.3200
 30
0.0000
 41
1.3000
 42
1.5000
 43
1.0000
 50
180.0000
  0
INSERT
  8
31
  2
RECT
 10
16.8300
 20
20.3200
 30
0.0000
 41
1.3000
 42
1.5000
 43
1.0000
 50
180.0000
  0
INSERT
  8
31
  2
RECT
 10
31.7500
 20
32.9590
 30
0.0000
 41
1.3000
 42
1.5000
 43
1.0000
 50
90.0000
  0
INSERT
  8
31
  2
RECT
 10
31.7500
 20
34.8590
 30
0.0000
 41
1.3000
 42
1.5000
 43
1.0000
 50
90.0000
  0
INSERT
  8
31
  2
RECT
 10
11.5570
 20
34.4830
 30
0.0000
 41
1.3000
 42
1.5000
 43
1.0000
 50
90.0000
  0
INSERT
  8
31
  2
RECT
 10
11.5570
 20
36.3830
 30
0.0000
 41
1.3000
 42
1.5000
 43
1.0000
 50
90.0000
  0
INSERT
  8
31
  2
RECT
 10
24.3230
 20
7.3660
 30
0.0000
 41
1.3000
 42
1.5000
 43
1.0000
 50
0.0000
  0
INSERT
  8
31
  2
RECT
 10
26.2230
 20
7.3660
 30
0.0000
 41
1.3000
 42
1.5000
 43
1.0000
 50
0.0000
  0
INSERT
  8
31
  2
RECT
 10
13.9700
 20
21.2700
 30
0.0000
 41
1.3000
 42
1.5000
 43
1.0000
 50
270.0000
  0
INSERT
  8
31
  2
RECT
 10
13.9700
 20
19.3700
 30
0.0000
 41
1.3000
 42
1.5000
 43
1.0000
 50
270.0000
  0
INSERT
  8
31
  2
RECT
 10
22.5450
 20
8.1000
 30
0.0000
 41
1.1000
 42
0.7000
 43
1.0000
 50
90.0000
  0
INSERT
  8
31
  2
RECT
 10
22.5450
 20
4.6000
 30
0.0000
 41
1.1000
 42
0.7000
 43
1.0000
 50
90.0000
  0
INSERT
  8
31
  2
RECT
 10
18.0950
 20
4.6000
 30
0.0000
 41
1.1000
 42
0.7000
 43
1.0000
 50
90.0000
  0
INSERT
  8
31
  2
RECT
 10
18.0950
 20
8.1000
 30
0.0000
 41
1.1000
 42
0.7000
 43
1.0000
 50
90.0000
  0
INSERT
  8
31
  2
RECT
 10
21.1074
 20
30.7400
 30
0.0000
 41
1.2700
 42
0.5588
 43
1.0000
 50
0.0000
  0
INSERT
  8
31
  2
RECT
 10
21.1074
 20
29.9400
 30
0.0000
 41
1.2700
 42
0.5588
 43
1.0000
 50
0.0000
  0
INSERT
  8
31
  2
RECT
 10
21.1074
 20
29.1400
 30
0.0000
 41
1.2700
 42
0.5588
 43
1.0000
 50
0.0000
  0
INSERT
  8
31
  2
RECT
 10
21.1074
 20
28.3400
 30
0.0000
 41
1.2700
 42
0.5588
 43
1.0000
 50
0.0000
  0
INSERT
  8
31
  2
RECT
 10
21.1074
 20
27.5400
 30
0.0000
 41
1.2700
 42
0.5588
 43
1.0000
 50
0.0000
  0
INSERT
  8
31
  2
RECT
 10
21.1074
 20
26.7400
 30
0.0000
 41
1.2700
 42
0.5588
 43
1.0000
 50
0.0000
  0
INSERT
  8
31
  2
RECT
 10
21.1074
 20
25.9400
 30
0.0000
 41
1.2700
 42
0.5588
 43
1.0000
 50
0.0000
  0
INSERT
  8
31
  2
RECT
 10
21.1074
 20
25.1400
 30
0.0000
 41
1.2700
 42
0.5588
 43
1.0000
 50
0.0000
  0
INSERT
  8
31
  2
RECT
 10
22.6000
 20
23.6474
 30
0.0000
 41
0.5588
 42
1.2700
 43
1.0000
 50
0.0000
  0
INSERT
  8
31
  2
RECT
 10
23.4000
 20
23.6474
 30
0.0000
 41
0.5588
 42
1.2700
 43
1.0000
 50
0.0000
  0
INSERT
  8
31
  2
RECT
 10
24.2000
 20
23.6474
 30
0.0000
 41
0.5588
 42
1.2700
 43
1.0000
 50
0.0000
  0
INSERT
  8
31
  2
RECT
 10
25.0000
 20
23.6474
 30
0.0000
 41
0.5588
 42
1.2700
 43
1.0000
 50
0.0000
  0
INSERT
  8
31
  2
RECT
 10
25.8000
 20
23.6474
 30
0.0000
 41
0.5588
 42
1.2700
 43
1.0000
 50
0.0000
  0
INSERT
  8
31
  2
RECT
 10
26.6000
 20
23.6474
 30
0.0000
 41
0.5588
 42
1.2700
 43
1.0000
 50
0.0000
  0
INSERT
  8
31
  2
RECT
 10
27.4000
 20
23.6474
 30
0.0000
 41
0.5588
 42
1.2700
 43
1.0000
 50
0.0000
  0
INSERT
  8
31
  2
RECT
 10
28.2000
 20
23.6474
 30
0.0000
 41
0.5588
 42
1.2700
 43
1.0000
 50
0.0000
  0
INSERT
  8
31
  2
RECT
 10
29.6926
 20
25.1400
 30
0.0000
 41
1.2700
 42
0.5588
 43
1.0000
 50
0.0000
  0
INSERT
  8
31
  2
RECT
 10
29.6926
 20
25.9400
 30
0.0000
 41
1.2700
 42
0.5588
 43
1.0000
 50
0.0000
  0
INSERT
  8
31
  2
RECT
 10
29.6926
 20
26.7400
 30
0.0000
 41
1.2700
 42
0.5588
 43
1.0000
 50
0.0000
  0
INSERT
  8
31
  2
RECT
 10
29.6926
 20
27.5400
 30
0.0000
 41
1.2700
 42
0.5588
 43
1.0000
 50
0.0000
  0
INSERT
  8
31
  2
RECT
 10
29.6926
 20
28.3400
 30
0.0000
 41
1.2700
 42
0.5588
 43
1.0000
 50
0.0000
  0
INSERT
  8
31
  2
RECT
 10
29.6926
 20
29.1400
 30
0.0000
 41
1.2700
 42
0.5588
 43
1.0000
 50
0.0000
  0
INSERT
  8
31
  2
RECT
 10
29.6926
 20
29.9400
 30
0.0000
 41
1.2700
 42
0.5588
 43
1.0000
 50
0.0000
  0
INSERT
  8
31
  2
RECT
 10
29.6926
 20
30.7400
 30
0.0000
 41
1.2700
 42
0.5588
 43
1.0000
 50
0.0000
  0
INSERT
  8
31
  2
RECT
 10
28.2000
 20
32.2326
 30
0.0000
 41
0.5588
 42
1.2700
 43
1.0000
 50
0.0000
  0
INSERT
  8
31
  2
RECT
 10
27.4000
 20
32.2326
 30
0.0000
 41
0.5588
 42
1.2700
 43
1.0000
 50
0.0000
  0
INSERT
  8
31
  2
RECT
 10
26.6000
 20
32.2326
 30
0.0000
 41
0.5588
 42
1.2700
 43
1.0000
 50
0.0000
  0
INSERT
  8
31
  2
RECT
 10
25.8000
 20
32.2326
 30
0.0000
 41
0.5588
 42
1.2700
 43
1.0000
 50
0.0000
  0
INSERT
  8
31
  2
RECT
 10
25.0000
 20
32.2326
 30
0.0000
 41
0.5588
 42
1.2700
 43
1.0000
 50
0.0000
  0
INSERT
  8
31
  2
RECT
 10
24.2000
 20
32.2326
 30
0.0000
 41
0.5588
 42
1.2700
 43
1.0000
 50
0.0000
  0
INSERT
  8
31
  2
RECT
 10
23.4000
 20
32.2326
 30
0.0000
 41
0.5588
 42
1.2700
 43
1.0000
 50
0.0000
  0
INSERT
  8
31
  2
RECT
 10
22.6000
 20
32.2326
 30
0.0000
 41
0.5588
 42
1.2700
 43
1.0000
 50
0.0000
  0
INSERT
  8
31
  2
RECT
 10
20.3501
 20
15.5600
 30
0.0000
 41
0.5500
 42
1.2000
 43
1.0000
 50
90.0000
  0
INSERT
  8
31
  2
RECT
 10
20.3501
 20
16.5100
 30
0.0000
 41
0.5500
 42
1.2000
 43
1.0000
 50
90.0000
  0
INSERT
  8
31
  2
RECT
 10
20.3501
 20
17.4600
 30
0.0000
 41
0.5500
 42
1.2000
 43
1.0000
 50
90.0000
  0
INSERT
  8
31
  2
RECT
 10
17.7499
 20
17.4600
 30
0.0000
 41
0.5500
 42
1.2000
 43
1.0000
 50
90.0000
  0
INSERT
  8
31
  2
RECT
 10
17.7499
 20
15.5600
 30
0.0000
 41
0.5500
 42
1.2000
 43
1.0000
 50
90.0000
  0
INSERT
  8
31
  2
RECT
 10
27.3600
 20
15.7410
 30
0.0000
 41
1.9000
 42
1.1000
 43
1.0000
 50
0.0000
  0
INSERT
  8
31
  2
RECT
 10
31.0600
 20
15.7410
 30
0.0000
 41
1.9000
 42
1.1000
 43
1.0000
 50
0.0000
  0
INSERT
  8
31
  2
RECT
 10
31.0600
 20
18.0410
 30
0.0000
 41
1.9000
 42
1.1000
 43
1.0000
 50
0.0000
  0
INSERT
  8
31
  2
RECT
 10
27.3600
 20
18.0410
 30
0.0000
 41
1.9000
 42
1.1000
 43
1.0000
 50
0.0000
  0
ENDSEC
  0
EOF
